<?xml version="1.0" encoding="utf-8"?><svg viewBox="0 0 82 81" xmlns="http://www.w3.org/2000/svg" xmlns:xlink="http://www.w3.org/1999/xlink"><style>:root>svg{display:none}:root>svg:target{display:block}</style><svg viewBox="0 0 22 22" id="arrow" xmlns="http://www.w3.org/2000/svg"><path d="M11 21c5.523 0 10-4.477 10-10S16.523 1 11 1 1 5.477 1 11s4.477 10 10 10z" stroke="#3A1200" stroke-width="2" stroke-linecap="round" stroke-linejoin="round"/><path d="M15 11l-4-4-4 4M11 15V7" stroke="#3A1200" stroke-width="2" stroke-linecap="round" stroke-linejoin="round"/></svg><svg viewBox="0 0 40 40" id="close" xmlns="http://www.w3.org/2000/svg"><path d="M20 0C8.857 0 0 8.857 0 20s8.857 20 20 20 20-8.857 20-20S31.143 0 20 0zm7.714 30L20 22.286 12.286 30 10 27.714 17.714 20 10 12.286 12.286 10 20 17.714 27.714 10 30 12.286 22.286 20 30 27.714 27.714 30z"/></svg><svg viewBox="0 0 24 24" id="e-mail" xmlns="http://www.w3.org/2000/svg"><circle cx="12" cy="12" r="12"/><path d="M12 5c-3.864 0-7 3.136-7 7s3.136 7 7 7h3.5v-1.4H12c-3.038 0-5.6-2.562-5.6-5.6S8.962 6.4 12 6.4s5.6 2.562 5.6 5.6v1.001c0 .553-.497 1.099-1.05 1.099s-1.05-.546-1.05-1.099V12c0-1.932-1.568-3.5-3.5-3.5A3.501 3.501 0 008.5 12a3.501 3.501 0 005.978 2.471c.455.623 1.239 1.029 2.072 1.029 1.379 0 2.45-1.12 2.45-2.499V12c0-3.864-3.136-7-7-7zm0 9.1c-1.162 0-2.1-.938-2.1-2.1 0-1.162.938-2.1 2.1-2.1 1.162 0 2.1.938 2.1 2.1 0 1.162-.938 2.1-2.1 2.1z" fill="#8A2B00" fill-opacity=".7"/></svg><svg viewBox="0 0 30 30" id="icmail" xmlns="http://www.w3.org/2000/svg"><path d="M15 0C6.72 0 0 6.72 0 15c0 8.28 6.72 15 15 15h7.5v-3H15C8.49 27 3 21.51 3 15S8.49 3 15 3s12 5.49 12 12v2.145c0 1.185-1.065 2.355-2.25 2.355s-2.25-1.17-2.25-2.355V15c0-4.14-3.36-7.5-7.5-7.5-4.14 0-7.5 3.36-7.5 7.5 0 4.14 3.36 7.5 7.5 7.5 2.07 0 3.96-.84 5.31-2.205.975 1.335 2.655 2.205 4.44 2.205 2.955 0 5.25-2.4 5.25-5.355V15c0-8.28-6.72-15-15-15zm0 19.5c-2.49 0-4.5-2.01-4.5-4.5s2.01-4.5 4.5-4.5 4.5 2.01 4.5 4.5-2.01 4.5-4.5 4.5z"/></svg><svg viewBox="0 0 30 30" id="insta" xmlns="http://www.w3.org/2000/svg"><path d="M12.129 15a2.871 2.871 0 105.742 0 2.871 2.871 0 00-5.742 0z"/><path d="M8.286 9.92c.138-.374.358-.712.644-.99.278-.286.616-.507.99-.645.304-.118.76-.258 1.6-.296.908-.041 1.18-.05 3.48-.05s2.572.008 3.48.05c.84.038 1.296.178 1.6.296.374.138.713.359.99.645.286.278.506.616.645.99.118.303.258.76.296 1.6.041.908.05 1.18.05 3.48s-.009 2.572-.05 3.48c-.038.84-.178 1.296-.296 1.6a2.669 2.669 0 01-.645.99 2.668 2.668 0 01-.99.645c-.303.118-.76.258-1.6.296-.908.042-1.18.05-3.48.05s-2.572-.008-3.48-.05c-.84-.038-1.296-.178-1.6-.296a2.852 2.852 0 01-1.634-1.635c-.118-.304-.259-.76-.297-1.6-.042-.908-.05-1.18-.05-3.48s.008-2.572.05-3.48c.038-.84.178-1.296.297-1.6zM15 19.423a4.423 4.423 0 100-8.846 4.423 4.423 0 000 8.846zm-4.598-7.987a1.034 1.034 0 100-2.068 1.034 1.034 0 000 2.068z"/><path d="M15 0c8.283 0 15 6.717 15 15 0 8.283-6.717 15-15 15-8.283 0-15-6.717-15-15C0 6.717 6.717 0 15 0zM6.439 18.551c.041.917.187 1.543.4 2.09a4.404 4.404 0 002.52 2.52c.547.213 1.173.358 2.09.4.918.042 1.212.052 3.55.052 2.34 0 2.633-.01 3.552-.052.917-.042 1.543-.187 2.09-.4a4.22 4.22 0 001.526-.994c.438-.43.777-.95.994-1.525.213-.548.358-1.174.4-2.09.042-.92.052-1.213.052-3.552 0-2.34-.01-2.633-.052-3.551-.041-.917-.187-1.543-.4-2.09a4.22 4.22 0 00-.994-1.526 4.218 4.218 0 00-1.525-.994c-.548-.213-1.174-.358-2.09-.4-.92-.042-1.213-.052-3.552-.052-2.34 0-2.633.01-3.551.052-.917.042-1.543.187-2.09.4a4.222 4.222 0 00-1.527.994 4.22 4.22 0 00-.993 1.525c-.213.548-.359 1.174-.4 2.09-.042.92-.052 1.213-.052 3.552 0 2.34.01 2.633.052 3.551z"/></svg><svg fill="none" viewBox="0 0 82 52" id="logo" xmlns="http://www.w3.org/2000/svg"><path d="M2.142 49.144c-.678 0-1.176-.171-1.494-.513-.318-.342-.477-.909-.477-1.701 0-.63.105-1.308.315-2.034a4.74 4.74 0 011.026-1.863c.474-.522 1.074-.783 1.8-.783.45 0 .813.099 1.089.297.276.198.414.501.414.909 0 .258-.051.462-.153.612-.102.144-.261.216-.477.216a.624.624 0 01-.513-.234c.108-.054.204-.162.288-.324.084-.162.126-.33.126-.504a.576.576 0 00-.135-.396c-.084-.102-.222-.153-.414-.153-.318 0-.621.219-.909.657-.288.432-.522.978-.702 1.638a7.477 7.477 0 00-.261 1.908c0 .456.078.804.234 1.044.156.24.438.36.846.36.354 0 .681-.078.981-.234.3-.156.558-.378.774-.666l.207.09c-.15.378-.372.693-.666.945a2.997 2.997 0 01-.945.558 2.972 2.972 0 01-.954.171zm3.619-.09c-.444 0-.79-.114-1.035-.342-.246-.234-.37-.597-.37-1.089 0-.414.082-.87.244-1.368a3.14 3.14 0 01.792-1.287c.366-.366.83-.549 1.395-.549.66 0 .99.288.99.864 0 .336-.096.645-.288.927-.192.282-.447.51-.765.684a2.51 2.51 0 01-1.017.288c-.012.18-.018.3-.018.36 0 .294.05.495.153.603.102.102.267.153.495.153.324 0 .6-.075.828-.225.234-.15.489-.378.765-.684h.306c-.666 1.11-1.491 1.665-2.475 1.665zm.018-2.304c.222-.012.432-.09.63-.234.204-.144.366-.327.486-.549.126-.222.189-.456.189-.702 0-.246-.075-.369-.225-.369-.216 0-.43.189-.64.567a4.4 4.4 0 00-.44 1.287zm9.97.639c-.378 1.11-.936 1.665-1.674 1.665-.342 0-.606-.09-.792-.27a.946.946 0 01-.27-.684c0-.234.063-.633.189-1.197l.26-1.17L11.835 49h-1.062l-.243-3.771a1.72 1.72 0 00-.288.549 6.735 6.735 0 00-.243.954 13.876 13.876 0 01-.315 1.35c-.09.312-.22.552-.387.72-.162.168-.381.252-.657.252-.324 0-.58-.099-.765-.297a1.038 1.038 0 01-.288-.738c0-.204.048-.366.144-.486a.47.47 0 01.396-.189c.144 0 .26.045.35.135.09.09.136.198.136.324 0 .144-.036.255-.108.333a.29.29 0 01-.252.09c0 .228.117.342.35.342.169 0 .307-.06.415-.18.108-.126.2-.33.279-.612.084-.282.174-.69.27-1.224.132-.762.33-1.293.594-1.593.27-.306.62-.459 1.053-.459h.405l.17 3.456L13.49 44.5h1.458l-.477 2.232c-.06.258-.111.483-.153.675a2.244 2.244 0 00-.063.396c0 .252.12.378.36.378a.517.517 0 00.405-.171c.102-.114.219-.321.35-.621h.379zm.91 1.665c-.444 0-.789-.114-1.035-.342-.246-.234-.369-.597-.369-1.089 0-.414.081-.87.243-1.368a3.14 3.14 0 01.792-1.287c.366-.366.831-.549 1.395-.549.66 0 .99.288.99.864 0 .336-.096.645-.288.927-.192.282-.447.51-.765.684a2.51 2.51 0 01-1.017.288c-.012.18-.018.3-.018.36 0 .294.051.495.153.603.102.102.267.153.495.153.324 0 .6-.075.828-.225.234-.15.49-.378.765-.684h.306c-.666 1.11-1.49 1.665-2.475 1.665zm.018-2.304c.222-.012.432-.09.63-.234.204-.144.366-.327.486-.549.126-.222.19-.456.19-.702 0-.246-.076-.369-.226-.369-.216 0-.429.189-.639.567a4.4 4.4 0 00-.44 1.287zm3.04 2.304c-.288 0-.522-.09-.702-.27-.174-.18-.26-.45-.26-.81 0-.15.023-.345.071-.585l.612-2.889h1.296l-.648 3.06a1.29 1.29 0 00-.027.252c0 .246.09.369.27.369a.554.554 0 00.432-.207c.12-.144.216-.339.288-.585l.612-2.889h1.296l-.648 3.06c-.024.09-.036.186-.036.288 0 .12.027.207.081.261.06.048.156.072.288.072a.545.545 0 00.432-.216c.126-.144.225-.336.297-.576h.378c-.222.648-.498 1.089-.828 1.323-.324.228-.65.342-.98.342-.259 0-.466-.072-.622-.216-.15-.144-.24-.357-.27-.639-.204.33-.42.555-.648.675-.222.12-.45.18-.684.18zm1.395-4.995c-.372 0-.66-.069-.864-.207a.65.65 0 01-.306-.567c0-.198.054-.357.162-.477a.581.581 0 01.441-.18c.174 0 .31.042.405.126a.44.44 0 01.153.36.485.485 0 01-.216.432c.078.024.198.036.36.036.27 0 .531-.081.783-.243.258-.168.46-.438.603-.81h.378c-.192.558-.447.954-.765 1.188-.318.228-.696.342-1.134.342zm5.525 4.995c-.342 0-.606-.09-.792-.27a.946.946 0 01-.27-.684c0-.174.07-.594.207-1.26h-.999L24.324 49h-1.296l.954-4.5h1.296l-.387 1.8H25.9l.405-1.8h1.206l-.477 2.232c-.06.258-.11.483-.153.675a2.244 2.244 0 00-.063.396c0 .252.12.378.36.378a.517.517 0 00.405-.171c.102-.114.22-.321.351-.621h.378c-.378 1.11-.936 1.665-1.674 1.665zm2.375 0c-.342 0-.627-.117-.855-.351-.228-.234-.342-.6-.342-1.098 0-.444.087-.909.26-1.395.18-.492.445-.906.793-1.242a1.752 1.752 0 011.26-.513c.246 0 .429.042.549.126.12.084.18.195.18.333v.063l.099-.477h1.296l-.648 3.06c-.024.09-.036.186-.036.288 0 .258.123.387.369.387.168 0 .312-.078.432-.234.126-.156.225-.36.297-.612h.378c-.222.648-.498 1.089-.828 1.323-.324.228-.651.342-.981.342-.252 0-.456-.069-.612-.207-.15-.144-.24-.351-.27-.621a2.55 2.55 0 01-.585.603c-.21.15-.462.225-.756.225zm.585-.873c.15 0 .297-.069.44-.207a1.12 1.12 0 00.307-.585l.432-2.034a.348.348 0 00-.09-.225c-.06-.078-.153-.117-.28-.117-.24 0-.455.141-.647.423a3.249 3.249 0 00-.45 1.008c-.108.39-.162.735-.162 1.035 0 .3.042.492.126.576.09.084.198.126.324.126zm3.738.873c-.324 0-.573-.096-.747-.288a1.065 1.065 0 01-.261-.729c0-.216.05-.39.153-.522a.472.472 0 01.405-.198c.138 0 .249.045.333.135.09.084.135.195.135.333 0 .144-.036.252-.108.324a.279.279 0 01-.252.09.341.341 0 00.09.207c.054.054.14.081.26.081.193 0 .34-.108.442-.324.108-.216.216-.57.324-1.062a1.119 1.119 0 01-.63-.342c-.15-.174-.225-.408-.225-.702 0-.462.186-.837.558-1.125.372-.288.975-.432 1.809-.432h1.368l-.477 2.232c-.06.258-.111.483-.153.675a2.244 2.244 0 00-.063.396c0 .252.12.378.36.378a.583.583 0 00.306-.081c-.066.57-.348.888-.846.954-.342 0-.606-.09-.792-.27a.946.946 0 01-.27-.684c0-.174.054-.51.162-1.008-.162.036-.33.054-.504.054a8.567 8.567 0 01-.315 1.089 1.497 1.497 0 01-.405.612c-.168.138-.387.207-.657.207zm1.818-2.331a.419.419 0 00.144-.018l.378-1.719h-.216c-.348 0-.615.096-.801.288-.18.186-.27.438-.27.756 0 .462.216.693.648.693h.117zm7.04 2.331c-.36 0-.633-.087-.819-.261-.18-.18-.27-.426-.27-.738 0-.084.021-.252.063-.504.03-.15.045-.267.045-.351 0-.288-.114-.432-.342-.432a.4.4 0 00-.225.072 5.314 5.314 0 00-.35.261L39.897 49h-1.296l.963-4.5h1.296l-.387 1.782c.408-.48.732-.846.972-1.098.24-.252.46-.441.657-.567.204-.132.402-.198.594-.198.372 0 .558.198.558.594 0 .18-.05.324-.153.432-.096.102-.234.153-.414.153-.168 0-.294-.045-.378-.135a.444.444 0 01-.117-.324 1.759 1.759 0 00-.306.243c-.09.09-.189.207-.297.351a4.036 4.036 0 01-.369.432c.12-.024.246-.036.378-.036.312 0 .531.069.657.207.132.138.198.348.198.63 0 .084-.018.222-.054.414-.036.204-.054.36-.054.468 0 .222.12.333.36.333a.49.49 0 00.396-.171c.102-.114.22-.321.351-.621h.378c-.378 1.11-.924 1.665-1.638 1.665zm2.574-.018c-.444 0-.795-.114-1.053-.342-.258-.228-.387-.588-.387-1.08 0-.408.084-.861.252-1.359.168-.498.438-.927.81-1.287.372-.366.84-.549 1.404-.549.768 0 1.152.48 1.152 1.44v.009a.362.362 0 00.1.009c.197 0 .425-.051.683-.153.258-.108.492-.237.702-.387l.081.243a2.2 2.2 0 01-.684.477 3.565 3.565 0 01-.909.27c-.048.546-.17 1.023-.369 1.431-.198.408-.453.723-.765.945a1.718 1.718 0 01-1.017.333zm.36-.81c.144 0 .288-.081.432-.243.144-.168.27-.393.378-.675a4.44 4.44 0 00.234-.954c-.162-.036-.243-.162-.243-.378 0-.246.093-.408.28-.486-.013-.198-.043-.333-.09-.405-.049-.078-.133-.117-.253-.117-.198 0-.39.144-.576.432a3.82 3.82 0 00-.45 1.035 3.958 3.958 0 00-.17 1.062c0 .288.032.483.098.585.066.096.186.144.36.144zm5.548.828c-.342 0-.606-.09-.792-.27a.946.946 0 01-.27-.684c0-.174.07-.594.207-1.26h-.999L48.362 49h-1.296l.954-4.5h1.296l-.387 1.8h1.008l.405-1.8h1.206l-.477 2.232c-.06.258-.11.483-.153.675a2.244 2.244 0 00-.063.396c0 .252.12.378.36.378a.517.517 0 00.405-.171c.102-.114.22-.321.351-.621h.378c-.378 1.11-.936 1.665-1.674 1.665zm2.582 0c-.444 0-.79-.114-1.035-.342-.246-.234-.37-.597-.37-1.089 0-.414.082-.87.244-1.368a3.14 3.14 0 01.792-1.287c.366-.366.83-.549 1.395-.549.66 0 .99.288.99.864 0 .336-.096.645-.288.927-.192.282-.447.51-.765.684a2.51 2.51 0 01-1.017.288c-.012.18-.018.3-.018.36 0 .294.05.495.153.603.102.102.267.153.495.153.324 0 .6-.075.828-.225.234-.15.489-.378.765-.684h.306c-.666 1.11-1.491 1.665-2.475 1.665zm.018-2.304c.222-.012.432-.09.63-.234.204-.144.366-.327.486-.549.126-.222.189-.456.189-.702 0-.246-.075-.369-.225-.369-.216 0-.43.189-.64.567a4.4 4.4 0 00-.44 1.287zm4.309 1.809c-.306.33-.654.495-1.044.495s-.696-.12-.918-.36c-.216-.24-.324-.603-.324-1.089 0-.678.189-1.353.567-2.025.186-.336.432-.606.738-.81.306-.21.642-.315 1.008-.315.492 0 .738.165.738.495l.45-2.07 1.242-.18-.486 2.142a1.543 1.543 0 011.053-.387c.732 0 1.098.474 1.098 1.422 0 .576-.078 1.104-.234 1.584a2.52 2.52 0 01-.747 1.152c-.336.294-.76.441-1.27.441-.36 0-.602-.108-.728-.324l-.468 2.196-1.27.324.595-2.691zM56.8 48.1c.054.054.132.081.234.081a.708.708 0 00.423-.162.967.967 0 00.324-.477l.477-2.223c-.036-.204-.168-.306-.396-.306-.216 0-.43.15-.64.45-.197.294-.347.63-.45 1.008-.101.408-.152.741-.152.999 0 .174.018.315.054.423a.437.437 0 00.126.207zm2.412.171c.258 0 .483-.12.675-.36.192-.24.336-.546.432-.918.102-.372.153-.753.153-1.143 0-.498-.15-.747-.45-.747-.246 0-.453.147-.621.441l-.531 2.52c.048.138.162.207.342.207zm4.142.783c-.444 0-.789-.114-1.035-.342-.246-.234-.369-.597-.369-1.089 0-.414.081-.87.243-1.368a3.14 3.14 0 01.792-1.287c.366-.366.831-.549 1.395-.549.66 0 .99.288.99.864 0 .336-.096.645-.288.927-.192.282-.447.51-.765.684a2.51 2.51 0 01-1.017.288c-.012.18-.018.3-.018.36 0 .294.051.495.153.603.102.102.267.153.495.153.324 0 .6-.075.828-.225.234-.15.49-.378.765-.684h.306c-.666 1.11-1.49 1.665-2.475 1.665zm.018-2.304c.222-.012.432-.09.63-.234.204-.144.366-.327.486-.549.126-.222.19-.456.19-.702 0-.246-.076-.369-.226-.369-.216 0-.429.189-.639.567a4.4 4.4 0 00-.44 1.287zm2.834-2.583h1.296l-.144.675c.3-.258.65-.387 1.053-.387.335 0 .602.111.8.333.198.222.297.585.297 1.089 0 .474-.069.954-.207 1.44-.138.48-.372.891-.702 1.233-.33.336-.764.504-1.304.504-.385 0-.64-.108-.766-.324l-.468 2.196-1.358.324 1.503-7.083zm.81 4.104c.288 0 .525-.135.71-.405.192-.27.33-.591.414-.963.09-.378.135-.729.135-1.053 0-.498-.15-.747-.45-.747a.59.59 0 00-.332.117 1.092 1.092 0 00-.288.324l-.532 2.52c.048.138.162.207.342.207zm10.536-.882c-.378 1.11-.936 1.665-1.674 1.665-.342 0-.606-.09-.792-.27a.946.946 0 01-.27-.684c0-.234.063-.633.19-1.197l.26-1.17L73.638 49h-1.062l-.243-3.771a1.72 1.72 0 00-.288.549 6.738 6.738 0 00-.243.954 13.876 13.876 0 01-.315 1.35c-.09.312-.219.552-.387.72-.162.168-.38.252-.657.252-.324 0-.579-.099-.765-.297a1.038 1.038 0 01-.288-.738c0-.204.048-.366.144-.486a.47.47 0 01.396-.189c.144 0 .261.045.351.135.09.09.135.198.135.324 0 .144-.036.255-.108.333a.29.29 0 01-.252.09c0 .228.117.342.351.342.168 0 .306-.06.414-.18.108-.126.201-.33.28-.612.083-.282.173-.69.27-1.224.131-.762.33-1.293.593-1.593.27-.306.621-.459 1.053-.459h.405l.171 3.456 1.701-3.456h1.458l-.477 2.232c-.06.258-.11.483-.153.675a2.244 2.244 0 00-.063.396c0 .252.12.378.36.378a.517.517 0 00.405-.171c.102-.114.22-.321.351-.621h.378zm.704 1.665c-.342 0-.627-.117-.855-.351-.228-.234-.342-.6-.342-1.098 0-.444.087-.909.26-1.395.18-.492.445-.906.793-1.242a1.752 1.752 0 011.26-.513c.246 0 .429.042.549.126.12.084.18.195.18.333v.063l.099-.477h1.296l-.648 3.06c-.024.09-.036.186-.036.288 0 .12.027.207.08.261.06.048.157.072.289.072.084 0 .15-.012.198-.036-.132.336-.258.573-.378.711-.12.132-.294.198-.522.198a.854.854 0 01-.603-.216c-.15-.15-.243-.357-.28-.621-.365.558-.812.837-1.34.837zm.585-.873c.15 0 .297-.069.44-.207a1.12 1.12 0 00.307-.585l.432-2.034a.348.348 0 00-.09-.225c-.06-.078-.153-.117-.28-.117-.24 0-.455.141-.647.423a3.249 3.249 0 00-.45 1.008c-.108.39-.162.735-.162 1.035 0 .3.042.492.126.576.09.084.198.126.324.126zM21.48 22v-.588c.576-.576 1.088-1.096 1.536-1.56.448-.464.824-.892 1.128-1.284.304-.4.536-.764.696-1.092.16-.336.24-.66.24-.972 0-.44-.12-.8-.36-1.08s-.604-.42-1.092-.42c-.32 0-.616.092-.888.276a3.55 3.55 0 00-.744.648l-.564-.564c.32-.352.66-.632 1.02-.84.36-.216.792-.324 1.296-.324.712 0 1.272.208 1.68.624.408.408.612.952.612 1.632 0 .36-.08.724-.24 1.092-.152.36-.368.736-.648 1.128-.272.384-.6.788-.984 1.212-.376.416-.792.86-1.248 1.332l.648-.048c.224-.016.436-.024.636-.024h2.22V22H21.48zm8.473.144c-.776 0-1.38-.344-1.812-1.032-.432-.688-.648-1.676-.648-2.964s.216-2.268.648-2.94c.432-.672 1.036-1.008 1.812-1.008.768 0 1.368.336 1.8 1.008.432.672.648 1.652.648 2.94s-.216 2.276-.648 2.964c-.432.688-1.032 1.032-1.8 1.032zm0-.792c.224 0 .424-.06.6-.18.184-.128.34-.32.468-.576.136-.264.24-.596.312-.996.072-.408.108-.892.108-1.452 0-.56-.036-1.04-.108-1.44-.072-.4-.176-.724-.312-.972-.128-.256-.284-.444-.468-.564a1.04 1.04 0 00-.6-.18c-.224 0-.428.06-.612.18s-.344.308-.48.564c-.128.248-.228.572-.3.972-.072.4-.108.88-.108 1.44 0 1.12.136 1.936.408 2.448.28.504.644.756 1.092.756zM49.948 22v-.816H51.7v-5.64h-1.392v-.636c.352-.064.656-.14.912-.228.264-.096.5-.208.708-.336h.756v6.84h1.584V22h-4.32zm5.965 0v-.816h1.752v-5.64h-1.392v-.636c.352-.064.656-.14.912-.228.264-.096.5-.208.708-.336h.756v6.84h1.584V22h-4.32z" fill="#fff"/><path transform="scale(1.05846 .9379) rotate(45 4.637 33.844)" stroke="#fff" d="M0-.5h37.909"/><path transform="scale(1.05846 .9379) rotate(-45 53.01 -13.807)" stroke="#fff" d="M0-.5h37.909"/><g clip-path="url(#fclip0)"><path d="M45.493 28.148h.669V26.37h-2.675v1.778s1.337 2.37 1.337 4.74c0 2.371-1.337 4.149-4.012 4.149s-4.013-1.778-4.013-4.148c0-2.37 1.338-4.74 1.338-4.74V26.37h-2.675v1.778h.669s-2.007 2.37-2.007 5.926c0 2.963 3.344 5.333 6.688 5.333s6.688-2.37 6.688-5.333c0-3.555-2.007-5.926-2.007-5.926zm-10.031 5.333c-.401 0-.669-.237-.669-.592 0-.356.268-.593.669-.593s.669.237.669.593c0 .355-.268.592-.67.592zm1.337 3.556c-.4 0-.668-.237-.668-.593 0-.355.267-.592.668-.592.402 0 .67.237.67.592 0 .356-.268.593-.67.593zm4.013 1.778c-.401 0-.669-.237-.669-.593 0-.355.268-.592.669-.592s.669.237.669.592c0 .356-.268.593-.67.593zm4.012-1.778c-.4 0-.668-.237-.668-.593 0-.355.267-.592.668-.592.402 0 .67.237.67.592 0 .356-.268.593-.67.593zm1.338-3.556c-.401 0-.669-.237-.669-.592 0-.356.268-.593.669-.593s.669.237.669.593c0 .355-.268.592-.67.592z" fill="#fff"/></g><g clip-path="url(#fclip1)"><path d="M41.587 10.61l-.124 1.593c-.009.109-.115.191-.238.184a.237.237 0 01-.142-.058.189.189 0 01-.065-.126l-.124-1.593c-.014-.17.13-.317.322-.329.192-.011.358.117.371.286a.274.274 0 010 .043z" fill="#fff"/><mask id="fa" fill="#fff"><path d="M47.253 2.974s-.028-.01-.08-.021a2.404 2.404 0 00-.59-.04 3.324 3.324 0 00-.469.06c-.173.031-.36.085-.555.136-.098.025-.2.056-.303.084l-.156.047a70.95 70.95 0 00-.16.05l-.16.051-.165.056-.166.057-.167.063-.168.063-.169.069-.168.07-.17.076-.083.038-.084.04c-.056.026-.11.054-.166.081l-.164.086c-.054.03-.108.057-.162.089l-.16.091a11.78 11.78 0 00-.154.097l-.077.048-.075.05c-.05.034-.099.066-.146.102a5.095 5.095 0 00-.526.43 3.965 3.965 0 00-.497.559 4.005 4.005 0 00-.497-.56 5.101 5.101 0 00-.525-.43c-.048-.035-.097-.067-.147-.1l-.075-.05-.076-.049c-.05-.032-.103-.065-.155-.096l-.16-.092c-.053-.031-.107-.06-.161-.088-.055-.029-.11-.059-.165-.086l-.166-.082-.084-.04-.083-.037-.169-.076c-.056-.025-.112-.047-.168-.07l-.17-.07c-.056-.02-.111-.042-.167-.063l-.168-.062-.165-.058-.164-.055-.162-.052-.16-.05-.155-.046c-.103-.029-.205-.06-.303-.085-.196-.05-.383-.104-.553-.137a3.579 3.579 0 00-.248-.04 3.562 3.562 0 00-.417-.023c-.055.001-.11.004-.165.01-.1.009-.177.022-.23.034-.053.011-.082.021-.082.021a2.155 2.155 0 00-1.167.945c-.555.973-.114 2.16.984 2.652l.183.083s.024.01.067.022a1.3 1.3 0 00.32.051 1.962 1.962 0 00.334-.003c.062-.004.127-.01.195-.02s.14-.024.213-.037l.228-.04c.078-.015.157-.026.239-.039l.124-.02.125-.018.128-.02.128-.015.13-.017.13-.015.133-.015.13-.012c.044-.004.09-.01.133-.012l.131-.01.066-.005.065-.003.13-.007.128-.004.127-.003a6.529 6.529 0 01.606.019l.112.01.11.014.055.007.053.008a3.507 3.507 0 01.743.2c.106.041.2.086.285.126l.114.056c.038.02.071.038.097.05l.071.03a.61.61 0 00.291.043c.1.01.2-.005.29-.043l.071-.03c.026-.012.059-.03.096-.05l.115-.056c.085-.04.179-.085.285-.126a3.587 3.587 0 01.743-.2l.053-.008.055-.007c.036-.004.072-.01.11-.013l.112-.011.117-.008a6.433 6.433 0 01.616-.008l.128.004.13.007.065.004.066.004.13.01.133.012.13.012.133.015.13.015.131.017.128.016a50.096 50.096 0 01.253.037l.124.02c.082.014.16.025.239.04.078.013.154.026.228.04.072.012.145.027.213.036a2.722 2.722 0 00.662.01 1.307 1.307 0 00.254-.06l.186-.084a2.08 2.08 0 001.063-1.033c.454-1.013-.106-2.16-1.25-2.563z"/></mask><path d="M47.253 2.974s-.028-.01-.08-.021a2.404 2.404 0 00-.59-.04 3.324 3.324 0 00-.469.06c-.173.031-.36.085-.555.136-.098.025-.2.056-.303.084l-.156.047a70.95 70.95 0 00-.16.05l-.16.051-.165.056-.166.057-.167.063-.168.063-.169.069-.168.07-.17.076-.083.038-.084.04c-.056.026-.11.054-.166.081l-.164.086c-.054.03-.108.057-.162.089l-.16.091a11.78 11.78 0 00-.154.097l-.077.048-.075.05c-.05.034-.099.066-.146.102a5.095 5.095 0 00-.526.43 3.965 3.965 0 00-.497.559 4.005 4.005 0 00-.497-.56 5.101 5.101 0 00-.525-.43c-.048-.035-.097-.067-.147-.1l-.075-.05-.076-.049c-.05-.032-.103-.065-.155-.096l-.16-.092c-.053-.031-.107-.06-.161-.088-.055-.029-.11-.059-.165-.086l-.166-.082-.084-.04-.083-.037-.169-.076c-.056-.025-.112-.047-.168-.07l-.17-.07c-.056-.02-.111-.042-.167-.063l-.168-.062-.165-.058-.164-.055-.162-.052-.16-.05-.155-.046c-.103-.029-.205-.06-.303-.085-.196-.05-.383-.104-.553-.137a3.579 3.579 0 00-.248-.04 3.562 3.562 0 00-.417-.023c-.055.001-.11.004-.165.01-.1.009-.177.022-.23.034-.053.011-.082.021-.082.021a2.155 2.155 0 00-1.167.945c-.555.973-.114 2.16.984 2.652l.183.083s.024.01.067.022a1.3 1.3 0 00.32.051 1.962 1.962 0 00.334-.003c.062-.004.127-.01.195-.02s.14-.024.213-.037l.228-.04c.078-.015.157-.026.239-.039l.124-.02.125-.018.128-.02.128-.015.13-.017.13-.015.133-.015.13-.012c.044-.004.09-.01.133-.012l.131-.01.066-.005.065-.003.13-.007.128-.004.127-.003a6.529 6.529 0 01.606.019l.112.01.11.014.055.007.053.008a3.507 3.507 0 01.743.2c.106.041.2.086.285.126l.114.056c.038.02.071.038.097.05l.071.03a.61.61 0 00.291.043c.1.01.2-.005.29-.043l.071-.03c.026-.012.059-.03.096-.05l.115-.056c.085-.04.179-.085.285-.126a3.587 3.587 0 01.743-.2l.053-.008.055-.007c.036-.004.072-.01.11-.013l.112-.011.117-.008a6.433 6.433 0 01.616-.008l.128.004.13.007.065.004.066.004.13.01.133.012.13.012.133.015.13.015.131.017.128.016a50.096 50.096 0 01.253.037l.124.02c.082.014.16.025.239.04.078.013.154.026.228.04.072.012.145.027.213.036a2.722 2.722 0 00.662.01 1.307 1.307 0 00.254-.06l.186-.084a2.08 2.08 0 001.063-1.033c.454-1.013-.106-2.16-1.25-2.563z" stroke="#fff" stroke-width="2" mask="url(#fa)"/><mask id="fb" fill="#fff"><path d="M41.933 3.621a1.377 1.377 0 00-.656-.164c-.232 0-.46.057-.657.164-1.445.785-2.409 2.197-2.409 3.809 0 1.62.974 3.038 2.431 3.82.39.209.88.209 1.27 0 1.457-.782 2.43-2.2 2.43-3.82 0-1.612-.963-3.024-2.409-3.809z"/></mask><path d="M40.62 3.621l.477.88.002-.001-.479-.879zm.022 7.629l-.473.88.473-.88zm1.27 0l-.473-.881.472.88zm.5-8.507a2.377 2.377 0 00-1.135-.286v2c.07 0 .132.018.178.043l.957-1.757zm-1.135-.286c-.394 0-.786.096-1.135.286l.956 1.757a.378.378 0 01.179-.043v-2zm-1.134.286c-1.715.93-2.932 2.653-2.932 4.687h2c0-1.19.712-2.292 1.886-2.93l-.954-1.757zM37.211 7.43c0 2.044 1.229 3.773 2.958 4.7l.946-1.761c-1.185-.637-1.904-1.744-1.904-2.94h-2zm2.959 4.7c.684.368 1.53.368 2.215 0l-.946-1.761a.365.365 0 01-.324 0l-.946 1.762zm2.214 0c1.73-.927 2.959-2.656 2.959-4.7h-2c0 1.195-.719 2.302-1.904 2.939l.945 1.762zm2.959-4.7c0-2.034-1.217-3.756-2.932-4.687L41.456 4.5c1.175.638 1.887 1.74 1.887 2.93h2z" fill="#fff" mask="url(#fb)"/><path d="M42.496 1.067l.01-.01A.38.38 0 0143 1.02c.147.11.165.305.04.436m-.543-.39l-.059.066a4.718 4.718 0 00-.422.556c.118-.125.24-.238.349-.331 0 0 0 0 0 0a4.957 4.957 0 01.17-.14s0 0 0 0c.021-.018.043-.035.065-.051l-.103-.1zm0 0l.103.1s0 0 0 0l.012-.01-.104-.1.105.1a1.586 1.586 0 01.09-.065m0 0a.146.146 0 00-.022.018l.103.099h0l.043.042h0l.214.206m-.339-.365s0 0 0 0h0zm.339.365l-.215-.205h0l-.035-.033v-.001l-.112-.106a.197.197 0 00-.035.053l.058.078.077.072h0l.09.087h0m.172.055a.355.355 0 01-.053.045l-.06.043m-.059-.143l-.09-.086h0l-.076-.072.052.069.007.01.006.006h0l.089.085.002-.002a.179.179 0 00.01-.01zm0 0l-.01.01v.002h0-.001 0l-.001.001-.009.01-.005.005.086.115m0 0l-.087-.114a2.202 2.202 0 00-.028.032h0a3.908 3.908 0 00-.107.126l.065.08m.157-.124c-.053.04-.106.08-.157.123m0 0l-.065-.08a3.4 3.4 0 00-.02.026l-.001.001a4.22 4.22 0 00-.242.333l.01.008c.11-.11.224-.21.318-.288zm-2.62.413l-.001-.002h0l-.078-.1a1 1 0 01-.01.007l.008.012a3.24 3.24 0 01.078.084l.003-.001zm0 0l.394-.224m-.394.224l.002.002.392-.226m0 0l-.051-.09h0l-.032-.056a.853.853 0 01.013-.007l.07.153zM38.711 7.43h0c0-.08.003-.158.008-.237h5.116c.005.079.008.158.008.237v.024H38.71V7.43zm1.583-4.99c-.32.264-.596.596-.596.956 0 .268.068.507.188.71a4.72 4.72 0 00-.707.693l1.115-2.36zm2.404 2.36h-2.842a4.32 4.32 0 01.341-.302l.34-.27-.22-.375a.884.884 0 01-.12-.457c0-.055.024-.14.112-.261a1.91 1.91 0 01.374-.366l.164-.127.114-.066a.654.654 0 01.6-.016l.09.044.178.133c.166.124.308.254.404.382.098.129.123.22.123.277 0 .18-.045.332-.119.456l-.22.375.34.271c.12.095.234.196.34.301zm-2.853-3.62l.024-.024-.001-.001-.024.023v.001zm-.016-.034l.01-.013h-.001l-.01.013s0 0 0 0zm-.172.117h0zm.118.325s0 0 0 0l.253-.307s0 0 0 0h-.001l-.252.307zm.909.492a2.253 2.253 0 00-.037-.076l.037.076zm.116.026l-.004-.007.004.007zm-.852-.89s0 0 0 0l-.094.082V1.3l.094-.083zm-.067-.051s0 0 0 0l-.031.03s0 0 0 0l.031-.03zm-.161.153h0zm-.032.126l-.02.018h.001v.001l.022-.018h-.003zm.006-.101l.002-.002-.003.002-.001.002.002-.002zm-.072.068h0s0 0 0 0h0zm.085-.103l.002.002h0l-.001-.002h0zm.007.006h0v-.001h0zm.015-.023l.002-.002.008-.01-.003.001-.007.011zm.046.076l.002.002h0l-.001-.002h0zm1.926.708h0l.082.037a1.097 1.097 0 00-.082-.037zm1.155-.662a.164.164 0 01-.017.013l-.072-.097h0l-.006-.007.006.006h0l.089.085zm-.103-.099l.013.016h0l.072.096a.13.13 0 01-.057.02.122.122 0 01-.082-.026s0 0 0 0a.2.2 0 01-.072-.121v-.001a.223.223 0 01.004-.102l.122.118zm-.007-.01l.007.01-.122-.118v-.001a.237.237 0 01.005-.015l.055.053.055.07zm-.055-.072l-.055-.052a.184.184 0 01.005-.013l.05.065zm-2.767 8.893a4.16 4.16 0 01-.255-.261h3.216c-.08.09-.166.177-.255.26h-2.706z" stroke="#fff"/></g><defs><clipPath id="fclip0"><path fill="#fff" transform="translate(32.787 25.778)" d="M0 0h16.05v14.222H0z"/></clipPath><clipPath id="fclip1"><path fill="#fff" transform="translate(33.79)" d="M0 0h15.047v13.333H0z"/></clipPath></defs></svg><svg fill="none" viewBox="0 0 80 81" id="offer_mail" xmlns="http://www.w3.org/2000/svg"><circle cx="40" cy="40.988" r="40" fill="#000D7D"/><path d="M40.001 17.657c-12.88 0-23.333 10.455-23.333 23.337s10.453 23.337 23.333 23.337h11.667v-4.667H40.001c-10.126 0-18.666-8.542-18.666-18.67 0-10.128 8.54-18.67 18.666-18.67 10.127 0 18.667 8.542 18.667 18.67v3.337c0 1.844-1.657 3.664-3.5 3.664s-3.5-1.82-3.5-3.664v-3.337c0-6.44-5.227-11.668-11.667-11.668-6.44 0-11.666 5.227-11.666 11.668 0 6.441 5.226 11.669 11.666 11.669 3.22 0 6.16-1.307 8.26-3.431 1.517 2.077 4.13 3.43 6.907 3.43 4.597 0 8.167-3.733 8.167-8.33v-3.338c0-12.882-10.454-23.337-23.334-23.337zm0 30.338c-3.873 0-7-3.127-7-7a6.991 6.991 0 017-7.002c3.874 0 7 3.127 7 7.001a6.991 6.991 0 01-7 7.001z" fill="#FF8934"/></svg><svg fill="none" viewBox="0 0 80 81" id="offer_tg" xmlns="http://www.w3.org/2000/svg"><g clip-path="url(#hclip0)"><path d="M40 80.012c22.091 0 40-17.911 40-40.006S62.091 0 40 0 0 17.911 0 40.006s17.909 40.006 40 40.006z" fill="#2AABEE"/><path fill-rule="evenodd" clip-rule="evenodd" d="M18.107 39.584l23.328-10.05c11.108-4.62 13.416-5.423 14.92-5.45.332-.006 1.072.076 1.55.465.405.329.517.773.57 1.084.053.31.12 1.02.067 1.575-.602 6.325-3.207 21.677-4.532 28.762-.56 2.998-1.664 4.003-2.733 4.102-2.324.213-4.087-1.536-6.337-3.01l-8.927-5.998c-3.95-2.603-1.39-4.033.862-6.371.589-.612 10.823-9.923 11.021-10.768.024-.105.048-.499-.186-.707-.234-.208-.579-.136-.828-.08-.353.08-5.977 3.798-16.872 11.154-1.597 1.096-3.043 1.63-4.338 1.602-1.428-.03-4.175-.807-6.218-1.471-2.505-.815-4.496-1.245-4.322-2.629.09-.72 1.082-1.457 2.975-2.21z" fill="#fff"/></g><defs><clipPath id="hclip0"><path fill="#fff" d="M0 0h80v80.012H0z"/></clipPath></defs></svg><svg fill="none" viewBox="0 0 80 81" id="offer_wp" xmlns="http://www.w3.org/2000/svg"><path d="M40 78.762c21.401 0 38.75-17.352 38.75-38.756S61.401 1.25 40 1.25 1.25 18.602 1.25 40.006 18.599 78.762 40 78.762z" fill="#30BF39"/><path d="M51.75 43.509c-.5-.25-3.125-1.75-3.625-1.875-.5-.25-.875-.25-1.25.25s-1.5 1.75-1.75 2c-.375.375-.625.375-1.125.125s-2.25-.875-4.25-2.876c-1.5-1.5-2.625-3.25-2.875-3.875-.25-.5 0-.875.25-1.125s.5-.625.875-.875.375-.5.625-.876c.25-.375.125-.625 0-1s-1.125-3-1.5-4.125c-.375-1.126-.875-.875-1.125-1-.375 0-.625-.126-1-.126-.5 0-1.125.25-1.5.626-.5.5-2 1.75-2 4.375 0 2.626 1.75 5.376 2 5.626.25.375 3.5 6.126 8.875 8.501 5.375 2.376 5.375 1.626 6.375 1.626s3.25-1.25 3.75-2.376c.5-1.25.5-2.375.375-2.5-.25 0-.625-.125-1.125-.5zm-10 12.877c-3.5 0-6.75-1-9.625-2.876l-6.75 2.126 2.25-6.501c-2.125-3-3.375-6.626-3.375-10.377 0-9.751 7.875-17.628 17.625-17.628s17.5 7.877 17.5 17.628c0 9.752-7.875 17.628-17.625 17.628zm0-38.756c-11.625 0-21.125 9.501-21.125 21.128 0 3.876 1 7.626 3 10.877L19.75 61.012 31.5 57.26c3.125 1.75 6.625 2.625 10.25 2.625 11.625 0 21.125-9.501 21.125-21.128S53.5 17.63 41.75 17.63z" fill="#fff"/></svg><svg viewBox="0 0 24 24" id="tel" xmlns="http://www.w3.org/2000/svg"><path d="M12 0C5.373 0 0 5.373 0 12s5.373 12 12 12 12-5.373 12-12S18.627 0 12 0zM7.687 4.767c.248-.015.471.133.64.395l1.641 3.111A.903.903 0 019.785 9.3l-.751.752a.368.368 0 00-.078.214c.288 1.115 1.162 2.144 1.934 2.852.77.707 1.6 1.665 2.676 1.892.133.037.296.05.391-.038l.873-.889c.301-.228.737-.34 1.06-.152h.014l2.96 1.747c.435.273.48.8.169 1.12l-2.04 2.022c-.3.31-.7.413-1.09.413-1.718-.051-3.342-.895-4.676-1.762-2.19-1.593-4.199-3.569-5.46-5.956-.484-1-1.052-2.278-.997-3.395.004-.42.118-.832.414-1.103l2.04-2.04a.798.798 0 01.463-.21z"/></svg><svg fill="none" viewBox="0 0 30 30" id="tel2" xmlns="http://www.w3.org/2000/svg"><path d="M15 0C6.716 0 0 6.716 0 15c0 8.284 6.716 15 15 15 8.284 0 15-6.716 15-15 0-8.284-6.716-15-15-15zM9.61 5.958c.308-.018.588.167.8.495l2.05 3.889c.216.46.093.954-.229 1.283l-.939.94a.46.46 0 00-.097.267c.36 1.394 1.453 2.68 2.417 3.565.964.885 2 2.082 3.345 2.366.167.046.37.063.49-.048l1.09-1.111c.377-.286.922-.424 1.325-.19h.018l3.7 2.184c.544.34.6.998.21 1.399l-2.548 2.528c-.376.386-.876.516-1.362.517-2.149-.065-4.18-1.12-5.847-2.203-2.737-1.991-5.248-4.461-6.824-7.445-.605-1.251-1.315-2.848-1.247-4.244.006-.526.148-1.04.518-1.38L9.03 6.223c.198-.169.395-.253.58-.264z" fill="#3A1200"/></svg><svg viewBox="0 0 24 24" id="telegram" xmlns="http://www.w3.org/2000/svg"><path d="M12 24c6.627 0 12-5.373 12-12S18.627 0 12 0 0 5.373 0 12s5.373 12 12 12z"/><path fill-rule="evenodd" clip-rule="evenodd" d="M5.432 11.873L12.43 8.86c3.333-1.386 4.025-1.627 4.476-1.635.1-.002.322.023.465.14a.506.506 0 01.171.325c.016.093.036.306.02.472-.18 1.898-.962 6.502-1.36 8.627-.168.9-.499 1.201-.82 1.23-.696.065-1.225-.46-1.9-.902l-2.678-1.8c-1.185-.78-.417-1.209.258-1.91.177-.184 3.247-2.977 3.307-3.23.007-.032.014-.15-.056-.212-.07-.063-.174-.041-.249-.024-.106.024-1.793 1.139-5.061 3.345-.48.33-.913.49-1.302.481-.428-.01-1.252-.242-1.865-.441-.752-.245-1.349-.374-1.297-.789.027-.216.325-.437.893-.663z" fill="#8A2B00" fill-opacity=".7"/></svg><svg viewBox="0 0 30 30" id="vk" xmlns="http://www.w3.org/2000/svg"><path d="M15 0C6.716 0 0 6.716 0 15c0 8.284 6.716 15 15 15 8.284 0 15-6.716 15-15 0-8.284-6.716-15-15-15zm7.609 16.622c.699.683 1.439 1.326 2.066 2.08.278.333.54.677.74 1.065.285.553.027 1.159-.467 1.192l-3.073-.001c-.794.066-1.426-.255-1.958-.797-.425-.433-.82-.894-1.229-1.342a2.871 2.871 0 00-.553-.492c-.42-.272-.783-.189-1.023.249-.245.445-.3.939-.324 1.434-.033.725-.252.914-.979.948-1.554.073-3.028-.163-4.398-.946-1.208-.69-2.144-1.666-2.959-2.77-1.587-2.152-2.803-4.514-3.895-6.944-.246-.547-.066-.84.538-.85a85.522 85.522 0 013.009-.002c.408.007.678.24.835.625.542 1.334 1.206 2.603 2.039 3.78.222.313.448.625.77.846.357.245.628.164.796-.233.107-.253.154-.523.177-.794.08-.927.09-1.854-.049-2.777-.086-.578-.41-.951-.987-1.06-.293-.056-.25-.165-.108-.332.248-.29.48-.47.944-.47h3.472c.547.107.67.353.744.904l.003 3.859c-.006.213.107.845.49.985.307.101.51-.145.693-.34.833-.883 1.426-1.926 1.957-3.005.235-.476.437-.969.634-1.462.146-.365.373-.545.785-.539l3.343.004c.099 0 .199.001.296.018.564.097.718.339.544.889-.275.863-.808 1.583-1.329 2.304-.558.772-1.154 1.517-1.707 2.293-.508.709-.468 1.066.163 1.681z"/></svg><svg viewBox="0 0 24 24" id="whatsapp" xmlns="http://www.w3.org/2000/svg"><path d="M12 23.625c6.42 0 11.625-5.205 11.625-11.625S18.42.375 12 .375.375 5.58.375 12 5.58 23.625 12 23.625z"/><path d="M15.525 13.05c-.15-.074-.938-.524-1.088-.562-.15-.075-.262-.075-.375.075-.112.15-.45.525-.525.6-.112.113-.187.113-.337.038-.15-.075-.675-.263-1.275-.863-.45-.45-.788-.975-.863-1.162-.075-.15 0-.263.075-.338.075-.075.15-.187.263-.262.112-.075.112-.15.187-.263.075-.112.038-.187 0-.3-.037-.112-.337-.9-.45-1.237-.112-.338-.262-.263-.337-.3-.113 0-.188-.038-.3-.038a.692.692 0 00-.45.188c-.15.15-.6.525-.6 1.312 0 .788.525 1.613.6 1.688.075.112 1.05 1.837 2.662 2.55 1.613.712 1.613.487 1.913.487.3 0 .975-.375 1.125-.712.15-.375.15-.713.112-.75-.075 0-.187-.038-.337-.15zm-3 3.863c-1.05 0-2.025-.3-2.888-.862l-2.025.637.675-1.95a5.41 5.41 0 01-1.012-3.112 5.281 5.281 0 015.287-5.288c2.925 0 5.25 2.363 5.25 5.288a5.281 5.281 0 01-5.287 5.287zm0-11.625c-3.488 0-6.338 2.85-6.338 6.338 0 1.162.3 2.287.9 3.262l-1.162 3.413 3.525-1.125a6.256 6.256 0 003.075.787c3.487 0 6.337-2.85 6.337-6.337a6.33 6.33 0 00-6.337-6.338z" fill="#8A2B00" fill-opacity=".7"/></svg><svg viewBox="0 0 30 30" id="youtube" xmlns="http://www.w3.org/2000/svg"><path d="M17.505 14.74l-3.51-1.638c-.306-.143-.557.017-.557.356v3.084c0 .34.251.499.557.356l3.508-1.637c.308-.144.308-.378.002-.522zM15 0C6.716 0 0 6.716 0 15c0 8.284 6.716 15 15 15 8.284 0 15-6.716 15-15 0-8.284-6.716-15-15-15zm0 21.094c-7.678 0-7.813-.692-7.813-6.094S7.322 8.906 15 8.906s7.813.692 7.813 6.094-.135 6.094-7.813 6.094z"/></svg></svg>